<svg xmlns="http://www.w3.org/2000/svg" version="1.1" xmlns:xlink="http://www.w3.org/1999/xlink" width="200" height="200"><svg xmlns="http://www.w3.org/2000/svg" version="1.1" xmlns:xlink="http://www.w3.org/1999/xlink" viewBox="0 0 200 200"><rect width="200" height="200" fill="url('#gradient')"></rect><defs><linearGradient id="SvgjsLinearGradient1001" gradientTransform="rotate(45 0.5 0.5)"><stop offset="0%" stop-color="#0ab5fa"></stop><stop offset="100%" stop-color="#0af4fa"></stop></linearGradient></defs><g><g fill="#0a4e91" transform="matrix(2.5273549979432333,0,0,2.5273549979432333,7.292047350605742,118.70477015214023)" stroke="#0c325a" stroke-width="0.2"><path d="M10.03-8.30L10.03-5.66L4.50-5.66L4.50 0L1.07 0L1.07-14.22L10.59-14.22L10.59-11.57L4.50-11.57L4.50-8.30L10.03-8.30ZM15.33-10.57L15.33 0L12.03 0L12.03-10.57L15.33-10.57ZM11.84-13.29L11.84-13.29Q11.84-13.99 12.34-14.44Q12.85-14.89 13.66-14.89Q14.47-14.89 14.98-14.44Q15.49-13.99 15.49-13.29Q15.49-12.59 14.98-12.14Q14.47-11.69 13.66-11.69Q12.85-11.69 12.34-12.14Q11.84-12.59 11.84-13.29ZM17.29-10.57L20.38-10.57L20.49-9.33Q21.58-10.76 23.51-10.76L23.51-10.76Q25.16-10.76 25.97-9.78Q26.79-8.79 26.82-6.81L26.82-6.81L26.82 0L23.52 0L23.52-6.67Q23.52-7.47 23.19-7.85Q22.87-8.22 22.02-8.22L22.02-8.22Q21.05-8.22 20.59-7.46L20.59-7.46L20.59 0L17.29 0L17.29-10.57ZM28.57-10.57L31.66-10.57L31.77-9.33Q32.86-10.76 34.79-10.76L34.79-10.76Q36.44-10.76 37.25-9.78Q38.07-8.79 38.10-6.81L38.10-6.81L38.10 0L34.79 0L34.79-6.67Q34.79-7.47 34.47-7.85Q34.15-8.22 33.30-8.22L33.30-8.22Q32.33-8.22 31.87-7.46L31.87-7.46L31.87 0L28.57 0L28.57-10.57ZM43.13-15L43.13-9.43Q44.19-10.76 45.83-10.76L45.83-10.76Q47.58-10.76 48.47-9.73Q49.36-8.69 49.38-6.67L49.38-6.67L49.38 0L46.07 0L46.07-6.59Q46.07-7.43 45.73-7.83Q45.39-8.22 44.57-8.22L44.57-8.22Q43.55-8.22 43.13-7.58L43.13-7.58L43.13 0L39.84 0L39.84-15L43.13-15ZM57.60 0L57.50-1.14Q56.46 0.20 54.68 0.20L54.68 0.20Q52.94 0.20 52.05-0.82Q51.15-1.83 51.15-3.72L51.15-3.72L51.15-10.57L54.44-10.57L54.44-3.70Q54.44-2.34 55.76-2.34L55.76-2.34Q56.89-2.34 57.37-3.15L57.37-3.15L57.37-10.57L60.68-10.57L60.68 0L57.60 0ZM72.29-5.36L72.29-5.20Q72.29-2.60 71.22-1.20Q70.15 0.20 68.19 0.20L68.19 0.20Q66.58 0.20 65.60-1.08L65.60-1.08L65.46 0L62.51 0L62.51-15L65.80-15L65.80-9.72Q66.72-10.76 68.17-10.76L68.17-10.76Q70.15-10.76 71.22-9.35Q72.29-7.93 72.29-5.36L72.29-5.36ZM68.99-5.40L68.99-5.40Q68.99-6.92 68.59-7.57Q68.18-8.22 67.34-8.22L67.34-8.22Q66.23-8.22 65.80-7.37L65.80-7.37L65.80-3.17Q66.22-2.33 67.36-2.33L67.36-2.33Q68.53-2.33 68.84-3.47L68.84-3.47Q68.99-4.02 68.99-5.40Z"></path></g></g></svg><style>@media (prefers-color-scheme: light) { :root { filter: none; } }
@media (prefers-color-scheme: dark) { :root { filter: none; } }
</style></svg>